<svg xmlns="http://www.w3.org/2000/svg" xmlns:xlink="http://www.w3.org/1999/xlink" version="1.1" width="256" height="256" viewBox="0 0 256 256" xml:space="preserve">

<defs>
</defs>
<g style="stroke: none; stroke-width: 0; stroke-dasharray: none; stroke-linecap: butt; stroke-linejoin: miter; stroke-miterlimit: 10; fill: none; fill-rule: nonzero; opacity: 1;" transform="translate(1.4065934065934016 1.4065934065934016) scale(2.81 2.81)" >
	<path d="M 45 90 L 45 90 C 20.147 90 0 69.853 0 45 v 0 C 0 20.147 20.147 0 45 0 h 0 c 24.853 0 45 20.147 45 45 v 0 C 90 69.853 69.853 90 45 90 z" style="stroke: none; stroke-width: 1; stroke-dasharray: none; stroke-linecap: butt; stroke-linejoin: miter; stroke-miterlimit: 10; fill: rgb(0,0,0); fill-rule: nonzero; opacity: 1;" transform=" matrix(1 0 0 1 0 0) " stroke-linecap="round" />
	<path d="M 10.788 10.677 v -0.511 c -0.177 -0.025 -0.356 -0.038 -0.535 -0.039 c -2.189 0 -3.97 1.781 -3.97 3.97 c 0 1.343 0.671 2.531 1.695 3.25 c -0.685 -0.733 -1.067 -1.699 -1.066 -2.703 C 6.913 12.487 8.643 10.727 10.788 10.677" style="stroke: none; stroke-width: 1; stroke-dasharray: none; stroke-linecap: butt; stroke-linejoin: miter; stroke-miterlimit: 10; fill: rgb(0,242,234); fill-rule: nonzero; opacity: 1;" transform=" matrix(3.89 0 0 3.89 -1.9444444444444287 -1.9444444444444287) " stroke-linecap="round" />
	<path d="M 10.882 16.457 c 0.977 0 1.773 -0.777 1.81 -1.745 l 0.003 -8.643 h 1.579 c -0.034 -0.181 -0.051 -0.364 -0.051 -0.547 h -2.157 l -0.004 8.643 c -0.036 0.968 -0.833 1.745 -1.809 1.745 c -0.293 0 -0.582 -0.071 -0.841 -0.208 C 9.752 16.176 10.299 16.457 10.882 16.457 M 17.223 9.003 v -0.48 c -0.58 0.001 -1.148 -0.168 -1.634 -0.486 C 16.015 8.527 16.589 8.866 17.223 9.003" style="stroke: none; stroke-width: 1; stroke-dasharray: none; stroke-linecap: butt; stroke-linejoin: miter; stroke-miterlimit: 10; fill: rgb(0,242,234); fill-rule: nonzero; opacity: 1;" transform=" matrix(3.89 0 0 3.89 -1.9444444444444287 -1.9444444444444287) " stroke-linecap="round" />
	<path d="M 15.59 8.037 c -0.476 -0.545 -0.738 -1.244 -0.738 -1.967 h -0.578 C 14.425 6.878 14.9 7.588 15.59 8.037 M 10.253 12.284 c -1.001 0.001 -1.812 0.812 -1.813 1.813 c 0.001 0.674 0.375 1.292 0.972 1.605 c -0.223 -0.308 -0.343 -0.677 -0.343 -1.057 c 0.001 -1.001 0.812 -1.812 1.813 -1.813 c 0.187 0 0.366 0.031 0.535 0.084 v -2.202 c -0.177 -0.025 -0.356 -0.038 -0.535 -0.039 c -0.031 0 -0.062 0.002 -0.094 0.002 v 1.691 C 10.615 12.313 10.435 12.285 10.253 12.284" style="stroke: none; stroke-width: 1; stroke-dasharray: none; stroke-linecap: butt; stroke-linejoin: miter; stroke-miterlimit: 10; fill: rgb(255,0,79); fill-rule: nonzero; opacity: 1;" transform=" matrix(3.89 0 0 3.89 -1.9444444444444287 -1.9444444444444287) " stroke-linecap="round" />
	<path d="M 17.223 9.003 v 1.676 c -1.118 0 -2.154 -0.358 -3 -0.965 v 4.383 c 0 2.189 -1.78 3.97 -3.969 3.97 c -0.846 0 -1.63 -0.267 -2.275 -0.72 c 0.749 0.808 1.801 1.267 2.903 1.267 c 2.189 0 3.97 -1.781 3.97 -3.969 v -4.383 c 0.874 0.629 1.924 0.966 3 0.965 V 9.07 C 17.636 9.07 17.426 9.046 17.223 9.003" style="stroke: none; stroke-width: 1; stroke-dasharray: none; stroke-linecap: butt; stroke-linejoin: miter; stroke-miterlimit: 10; fill: rgb(255,0,79); fill-rule: nonzero; opacity: 1;" transform=" matrix(3.89 0 0 3.89 -1.9444444444444287 -1.9444444444444287) " stroke-linecap="round" />
	<path d="M 14.223 14.097 V 9.714 c 0.874 0.629 1.924 0.966 3 0.965 V 9.003 c -0.635 -0.137 -1.208 -0.476 -1.634 -0.966 C 14.9 7.588 14.425 6.878 14.274 6.07 h -1.579 l -0.003 8.643 c -0.036 0.968 -0.833 1.745 -1.81 1.745 c -0.583 -0.001 -1.13 -0.282 -1.469 -0.756 c -0.597 -0.313 -0.971 -0.931 -0.972 -1.605 c 0.001 -1.001 0.812 -1.812 1.813 -1.813 c 0.186 0 0.366 0.031 0.535 0.084 v -1.691 c -2.146 0.05 -3.876 1.81 -3.876 3.968 c 0 1.043 0.405 1.993 1.066 2.703 c 0.666 0.469 1.461 0.72 2.275 0.719 C 12.442 18.067 14.223 16.286 14.223 14.097" style="stroke: none; stroke-width: 1; stroke-dasharray: none; stroke-linecap: butt; stroke-linejoin: miter; stroke-miterlimit: 10; fill: rgb(255,255,255); fill-rule: nonzero; opacity: 1;" transform=" matrix(3.89 0 0 3.89 -1.9444444444444287 -1.9444444444444287) " stroke-linecap="round" />
</g>
</svg>